<svg width="24" height="24" viewBox="0 0 24 24" fill="none" xmlns="http://www.w3.org/2000/svg">
<mask id="mask0_28_676" style="mask-type:alpha" maskUnits="userSpaceOnUse" x="0" y="0" width="24" height="24">
<rect width="24" height="24" fill="#D9D9D9"/>
</mask>
<g mask="url(#mask0_28_676)">
<path d="M9.99805 16.999H18.998V10.999H9.99805V16.999ZM3.99805 19.999C3.44805 19.999 2.97721 19.8032 2.58555 19.4115C2.19388 19.0199 1.99805 18.549 1.99805 17.999V5.99902C1.99805 5.44902 2.19388 4.97819 2.58555 4.58652C2.97721 4.19486 3.44805 3.99902 3.99805 3.99902H19.998C20.548 3.99902 21.0189 4.19486 21.4105 4.58652C21.8022 4.97819 21.998 5.44902 21.998 5.99902V17.999C21.998 18.549 21.8022 19.0199 21.4105 19.4115C21.0189 19.8032 20.548 19.999 19.998 19.999H3.99805ZM3.99805 17.999H19.998V5.99902H3.99805V17.999Z" fill="#2D2F31"/>
</g>
</svg>
