<svg width="24" height="24" viewBox="0 0 24 24" fill="none" xmlns="http://www.w3.org/2000/svg">
<mask id="mask0_28_666" style="mask-type:alpha" maskUnits="userSpaceOnUse" x="0" y="0" width="24" height="24">
<rect width="24" height="24" fill="#D9D9D9"/>
</mask>
<g mask="url(#mask0_28_666)">
<path d="M21 12.001L16.65 18.151C16.4667 18.4176 16.2292 18.626 15.9375 18.776C15.6458 18.926 15.3333 19.001 15 19.001H5C4.45 19.001 3.97917 18.8051 3.5875 18.4135C3.19583 18.0218 3 17.551 3 17.001V7.00098C3 6.45098 3.19583 5.98014 3.5875 5.58848C3.97917 5.19681 4.45 5.00098 5 5.00098H15C15.3333 5.00098 15.6458 5.07598 15.9375 5.22598C16.2292 5.37598 16.4667 5.58431 16.65 5.85098L21 12.001ZM18.55 12.001L15 7.00098H5V17.001H15L18.55 12.001Z" fill="#2D2F31"/>
</g>
</svg>
