<svg width="24" height="24" viewBox="0 0 24 24" fill="none" xmlns="http://www.w3.org/2000/svg">
<mask id="mask0_28_690" style="mask-type:alpha" maskUnits="userSpaceOnUse" x="0" y="0" width="24" height="24">
<rect width="24" height="24" fill="#D9D9D9"/>
</mask>
<g mask="url(#mask0_28_690)">
<path d="M1.99805 19.999V14.999C1.99805 14.1657 2.28971 13.4574 2.87305 12.874C3.45638 12.2907 4.16471 11.999 4.99805 11.999H5.99805V3.99902H17.998V11.999H18.998C19.8314 11.999 20.5397 12.2907 21.123 12.874C21.7064 13.4574 21.998 14.1657 21.998 14.999V19.999H1.99805ZM7.99805 11.999H15.998V5.99902H7.99805V11.999ZM3.99805 17.999H19.998V14.999C19.998 14.7157 19.9022 14.4782 19.7105 14.2865C19.5189 14.0949 19.2814 13.999 18.998 13.999H4.99805C4.71471 13.999 4.47721 14.0949 4.28555 14.2865C4.09388 14.4782 3.99805 14.7157 3.99805 14.999V17.999ZM17.998 16.999C18.2814 16.999 18.5189 16.9032 18.7105 16.7115C18.9022 16.5199 18.998 16.2824 18.998 15.999C18.998 15.7157 18.9022 15.4782 18.7105 15.2865C18.5189 15.0949 18.2814 14.999 17.998 14.999C17.7147 14.999 17.4772 15.0949 17.2855 15.2865C17.0939 15.4782 16.998 15.7157 16.998 15.999C16.998 16.2824 17.0939 16.5199 17.2855 16.7115C17.4772 16.9032 17.7147 16.999 17.998 16.999Z" fill="#1C1B1F"/>
</g>
</svg>
