<svg width="24" height="24" viewBox="0 0 24 24" fill="none" xmlns="http://www.w3.org/2000/svg">
<mask id="mask0_28_653" style="mask-type:alpha" maskUnits="userSpaceOnUse" x="0" y="0" width="24" height="24">
<rect width="24" height="24" fill="#DFDFDF"/>
</mask>
<g mask="url(#mask0_28_653)">
<path d="M9.25117 22.001L8.85117 18.801C8.6345 18.7176 8.43034 18.6176 8.23867 18.501C8.047 18.3843 7.8595 18.2593 7.67617 18.126L4.70117 19.376L1.95117 14.626L4.52617 12.676C4.50951 12.5593 4.50117 12.4468 4.50117 12.3385V11.6635C4.50117 11.5551 4.50951 11.4426 4.52617 11.326L1.95117 9.37598L4.70117 4.62598L7.67617 5.87598C7.8595 5.74264 8.05117 5.61764 8.25117 5.50098C8.45117 5.38431 8.65117 5.28431 8.85117 5.20098L9.25117 2.00098H14.7512L15.1512 5.20098C15.3678 5.28431 15.572 5.38431 15.7637 5.50098C15.9553 5.61764 16.1428 5.74264 16.3262 5.87598L19.3012 4.62598L22.0512 9.37598L19.4762 11.326C19.4928 11.4426 19.5012 11.5551 19.5012 11.6635V12.3385C19.5012 12.4468 19.4845 12.5593 19.4512 12.676L22.0262 14.626L19.2762 19.376L16.3262 18.126C16.1428 18.2593 15.9512 18.3843 15.7512 18.501C15.5512 18.6176 15.3512 18.7176 15.1512 18.801L14.7512 22.001H9.25117ZM11.0012 20.001H12.9762L13.3262 17.351C13.8428 17.2176 14.322 17.0218 14.7637 16.7635C15.2053 16.5051 15.6095 16.1926 15.9762 15.826L18.4512 16.851L19.4262 15.151L17.2762 13.526C17.3595 13.2926 17.4178 13.0468 17.4512 12.7885C17.4845 12.5301 17.5012 12.2676 17.5012 12.001C17.5012 11.7343 17.4845 11.4718 17.4512 11.2135C17.4178 10.9551 17.3595 10.7093 17.2762 10.476L19.4262 8.85098L18.4512 7.15098L15.9762 8.20098C15.6095 7.81764 15.2053 7.49681 14.7637 7.23848C14.322 6.98014 13.8428 6.78431 13.3262 6.65098L13.0012 4.00098H11.0262L10.6762 6.65098C10.1595 6.78431 9.68034 6.98014 9.23867 7.23848C8.797 7.49681 8.39284 7.80931 8.02617 8.17598L5.55117 7.15098L4.57617 8.85098L6.72617 10.451C6.64284 10.701 6.5845 10.951 6.55117 11.201C6.51784 11.451 6.50117 11.7176 6.50117 12.001C6.50117 12.2676 6.51784 12.526 6.55117 12.776C6.5845 13.026 6.64284 13.276 6.72617 13.526L4.57617 15.151L5.55117 16.851L8.02617 15.801C8.39284 16.1843 8.797 16.5051 9.23867 16.7635C9.68034 17.0218 10.1595 17.2176 10.6762 17.351L11.0012 20.001ZM12.0512 15.501C13.0178 15.501 13.8428 15.1593 14.5262 14.476C15.2095 13.7926 15.5512 12.9676 15.5512 12.001C15.5512 11.0343 15.2095 10.2093 14.5262 9.52598C13.8428 8.84264 13.0178 8.50098 12.0512 8.50098C11.0678 8.50098 10.2387 8.84264 9.56367 9.52598C8.88867 10.2093 8.55117 11.0343 8.55117 12.001C8.55117 12.9676 8.88867 13.7926 9.56367 14.476C10.2387 15.1593 11.0678 15.501 12.0512 15.501Z" fill="#2D2F31"/>
</g>
</svg>
