<svg width="20" height="16" viewBox="0 0 20 16" fill="none" xmlns="http://www.w3.org/2000/svg">
<path fill="#2181FA" d="M19.998 1.99902V13.999C19.998 14.549 19.8022 15.0199 19.4105 15.4115C19.0189 15.8032 18.548 15.999 17.998 15.999H1.99805C1.44805 15.999 0.977214 15.8032 0.585547 15.4115C0.19388 15.0199 -0.00195312 14.549 -0.00195312 13.999V1.99902C-0.00195312 1.44902 0.19388 0.97819 0.585547 0.586523C0.977214 0.194857 1.44805 -0.000976562 1.99805 -0.000976562H17.998C18.548 -0.000976562 19.0189 0.194857 19.4105 0.586523C19.8022 0.97819 19.998 1.44902 19.998 1.99902ZM1.99805 3.99902H17.998V1.99902H1.99805V3.99902ZM1.99805 7.99902V13.999H17.998V7.99902H1.99805Z" />
</svg>
