<svg width="25" height="24" viewBox="0 0 25 24" fill="none" xmlns="http://www.w3.org/2000/svg">
<path d="M8.79553 18H16.7955V16H8.79553V18ZM8.79553 14H16.7955V12H8.79553V14ZM6.79553 22C6.24553 22 5.7747 21.8042 5.38303 21.4125C4.99137 21.0208 4.79553 20.55 4.79553 20V4C4.79553 3.45 4.99137 2.97917 5.38303 2.5875C5.7747 2.19583 6.24553 2 6.79553 2H14.7955L20.7955 8V20C20.7955 20.55 20.5997 21.0208 20.208 21.4125C19.8164 21.8042 19.3455 22 18.7955 22H6.79553ZM13.7955 9V4H6.79553V20H18.7955V9H13.7955Z" fill="#2D2F31"/>
</svg>
