<svg width="4" height="27" viewBox="0 0 4 27" fill="none" xmlns="http://www.w3.org/2000/svg">
<path d="M-0.00634766 2.91049C-0.00634766 2.62496 0.0443109 2.364 0.146395 2.12606C0.248479 1.88888 0.391243 1.67781 0.574687 1.49436C0.758131 1.31092 0.968439 1.16816 1.20638 1.06607C1.44355 0.963988 1.69838 0.91333 1.97086 0.91333C2.54114 0.91333 3.02316 1.10368 3.41768 1.48362C3.81144 1.86432 4.0087 2.33943 4.0087 2.90972C4.0087 3.18143 3.9542 3.43626 3.84597 3.6742C3.73698 3.91214 3.59115 4.12245 3.40771 4.30589C3.22426 4.48934 3.01012 4.63517 2.76604 4.74416C2.52119 4.85315 2.25638 4.90688 1.97162 4.90688C1.68686 4.90688 1.44509 4.85239 1.20715 4.74416C0.969206 4.63517 0.758898 4.48934 0.575454 4.30589C0.39201 4.12245 0.249246 3.91214 0.147162 3.6742C0.0450781 3.43703 -0.00558053 3.1822 -0.00558053 2.90972L-0.00634766 2.91049ZM3.74312 24.4709C3.74312 24.7158 3.69861 24.943 3.61034 25.1533C3.52207 25.3643 3.39926 25.5478 3.24345 25.7036C3.08764 25.8594 2.90343 25.9861 2.69312 26.0805C2.48204 26.1756 2.25485 26.2232 2.01077 26.2232C1.76669 26.2232 1.53873 26.1756 1.32842 26.0805C1.11734 25.9853 0.930828 25.8594 0.768108 25.7036C0.605388 25.5478 0.475673 25.3643 0.381264 25.1533C0.286088 24.943 0.2385 24.715 0.2385 24.4709V9.04473C0.2385 8.55581 0.411967 8.13826 0.758131 7.79133C1.10429 7.4444 1.52875 7.2717 2.03149 7.2717C2.53424 7.2717 2.92799 7.44516 3.2542 7.79133C3.5804 8.13749 3.74312 8.55581 3.74312 9.04473V24.4709Z" fill="white"/>
</svg>
