<svg width="18" height="14" viewBox="0 0 18 14" fill="none" xmlns="http://www.w3.org/2000/svg">
<path d="M18 7.00098L13.65 13.151C13.4667 13.4176 13.2292 13.626 12.9375 13.776C12.6458 13.926 12.3333 14.001 12 14.001H2C1.45 14.001 0.979167 13.8051 0.5875 13.4135C0.195833 13.0218 0 12.551 0 12.001V2.00098C0 1.45098 0.195833 0.980143 0.5875 0.588477C0.979167 0.19681 1.45 0.000976562 2 0.000976562H12C12.3333 0.000976562 12.6458 0.0759766 12.9375 0.225977C13.2292 0.375977 13.4667 0.58431 13.65 0.850977L18 7.00098ZM15.55 7.00098L12 2.00098H2V12.001H12L15.55 7.00098Z" fill="#2D2F31"/>
</svg>
