<svg width="41" height="40" viewBox="0 0 41 40" fill="none" xmlns="http://www.w3.org/2000/svg">
<path d="M34.0178 1.16132H6.38835C3.61443 1.16132 1.36475 3.411 1.36475 6.18492V33.8143C1.36475 36.589 3.61443 38.8387 6.38912 38.8387H34.0178C36.7925 38.8387 39.0421 36.589 39.0421 33.8143V6.18492C39.0421 3.41023 36.7932 1.16132 34.0185 1.16132H34.0178Z" fill="#3B82F6"/>
<path d="M34.0175 40H6.38879C2.97781 40 0.203125 37.2253 0.203125 33.8143V6.1849C0.203125 2.77469 2.97781 0 6.38803 0H34.0175C37.4277 0 40.2024 2.77469 40.2024 6.1849V33.8143C40.2024 37.2253 37.4277 40 34.0167 40H34.0175ZM6.38803 2.3226C4.25808 2.3226 2.52573 4.05496 2.52573 6.1849V33.8143C2.52573 35.9443 4.25885 37.6766 6.38803 37.6766H34.0167C36.1466 37.6766 37.879 35.9435 37.879 33.8143V6.1849C37.879 4.05496 36.1466 2.3226 34.0167 2.3226H6.38803Z" fill="#67B3FA"/>
<g filter="url(#filter0_i_1_3043)">
<path d="M34.0178 1.16132H6.38835C3.61443 1.16132 1.36475 3.411 1.36475 6.18492V33.8143C1.36475 36.589 3.61443 38.8387 6.38912 38.8387H34.0178C36.7925 38.8387 39.0421 36.589 39.0421 33.8143V6.18492C39.0421 3.41023 36.7932 1.16132 34.0185 1.16132H34.0178Z" fill="#3B82F6"/>
</g>
<g filter="url(#filter1_d_1_3043)">
<path d="M18.1963 8.91049C18.1963 8.62496 18.2469 8.364 18.349 8.12606C18.4511 7.88888 18.5939 7.67781 18.7773 7.49436C18.9608 7.31092 19.1711 7.16816 19.409 7.06607C19.6462 6.96399 19.901 6.91333 20.1735 6.91333C20.7438 6.91333 21.2258 7.10368 21.6203 7.48362C22.0141 7.86432 22.2113 8.33943 22.2113 8.90972C22.2113 9.18143 22.1568 9.43626 22.0486 9.6742C21.9396 9.91214 21.7938 10.1224 21.6103 10.3059C21.4269 10.4893 21.2128 10.6352 20.9687 10.7442C20.7238 10.8532 20.459 10.9069 20.1743 10.9069C19.8895 10.9069 19.6477 10.8524 19.4098 10.7442C19.1718 10.6352 18.9615 10.4893 18.7781 10.3059C18.5946 10.1224 18.4519 9.91214 18.3498 9.6742C18.2477 9.43703 18.1971 9.1822 18.1971 8.90972L18.1963 8.91049ZM21.9458 30.4709C21.9458 30.7158 21.9012 30.943 21.813 31.1533C21.7247 31.3643 21.6019 31.5478 21.4461 31.7036C21.2903 31.8594 21.1061 31.9861 20.8958 32.0805C20.6847 32.1756 20.4575 32.2232 20.2134 32.2232C19.9693 32.2232 19.7414 32.1756 19.5311 32.0805C19.32 31.9853 19.1335 31.8594 18.9707 31.7036C18.808 31.5478 18.6783 31.3643 18.5839 31.1533C18.4887 30.943 18.4411 30.715 18.4411 30.4709V15.0447C18.4411 14.5558 18.6146 14.1383 18.9608 13.7913C19.3069 13.4444 19.7314 13.2717 20.2341 13.2717C20.7369 13.2717 21.1306 13.4452 21.4568 13.7913C21.783 14.1375 21.9458 14.5558 21.9458 15.0447V30.4709Z" fill="white"/>
</g>
<defs>
<filter id="filter0_i_1_3043" x="1.36475" y="1.16132" width="37.6775" height="37.6774" filterUnits="userSpaceOnUse" color-interpolation-filters="sRGB">
<feFlood flood-opacity="0" result="BackgroundImageFix"/>
<feBlend mode="normal" in="SourceGraphic" in2="BackgroundImageFix" result="shape"/>
<feColorMatrix in="SourceAlpha" type="matrix" values="0 0 0 0 0 0 0 0 0 0 0 0 0 0 0 0 0 0 127 0" result="hardAlpha"/>
<feOffset/>
<feGaussianBlur stdDeviation="1.5"/>
<feComposite in2="hardAlpha" operator="arithmetic" k2="-1" k3="1"/>
<feColorMatrix type="matrix" values="0 0 0 0 0 0 0 0 0 0 0 0 0 0 0 0 0 0 0.25 0"/>
<feBlend mode="normal" in2="shape" result="effect1_innerShadow_1_3043"/>
</filter>
<filter id="filter1_d_1_3043" x="16.9068" y="6.51037" width="5.94936" height="27.2441" filterUnits="userSpaceOnUse" color-interpolation-filters="sRGB">
<feFlood flood-opacity="0" result="BackgroundImageFix"/>
<feColorMatrix in="SourceAlpha" type="matrix" values="0 0 0 0 0 0 0 0 0 0 0 0 0 0 0 0 0 0 127 0" result="hardAlpha"/>
<feOffset dx="-0.32237" dy="0.564148"/>
<feGaussianBlur stdDeviation="0.483555"/>
<feColorMatrix type="matrix" values="0 0 0 0 0 0 0 0 0 0 0 0 0 0 0 0 0 0 0.27 0"/>
<feBlend mode="normal" in2="BackgroundImageFix" result="effect1_dropShadow_1_3043"/>
<feBlend mode="normal" in="SourceGraphic" in2="effect1_dropShadow_1_3043" result="shape"/>
</filter>
</defs>
</svg>
