<svg width="16" height="20" viewBox="0 0 16 20" fill="none" xmlns="http://www.w3.org/2000/svg">
<path d="M7 15H9V9H7V15ZM8 7C8.28333 7 8.52083 6.90417 8.7125 6.7125C8.90417 6.52083 9 6.28333 9 6C9 5.71667 8.90417 5.47917 8.7125 5.2875C8.52083 5.09583 8.28333 5 8 5C7.71667 5 7.47917 5.09583 7.2875 5.2875C7.09583 5.47917 7 5.71667 7 6C7 6.28333 7.09583 6.52083 7.2875 6.7125C7.47917 6.90417 7.71667 7 8 7ZM8 20C5.68333 19.4167 3.77083 18.0875 2.2625 16.0125C0.754167 13.9375 0 11.6333 0 9.1V3L8 0L16 3V9.1C16 11.6333 15.2458 13.9375 13.7375 16.0125C12.2292 18.0875 10.3167 19.4167 8 20ZM8 17.9C9.73333 17.35 11.1667 16.25 12.3 14.6C13.4333 12.95 14 11.1167 14 9.1V4.375L8 2.125L2 4.375V9.1C2 11.1167 2.56667 12.95 3.7 14.6C4.83333 16.25 6.26667 17.35 8 17.9Z" fill="#1C1B1F"/>
</svg>
