<svg width="24" height="24" viewBox="0 0 24 24" fill="none" xmlns="http://www.w3.org/2000/svg">
<path d="M5.00031 21C4.45031 21 3.97947 20.8042 3.58781 20.4125C3.19614 20.0208 3.00031 19.55 3.00031 19V5C3.00031 4.45 3.19614 3.97917 3.58781 3.5875C3.97947 3.19583 4.45031 3 5.00031 3H12.0003V5H5.00031V19H19.0003V12H21.0003V19C21.0003 19.55 20.8045 20.0208 20.4128 20.4125C20.0211 20.8042 19.5503 21 19.0003 21H5.00031ZM9.70031 15.7L8.30031 14.3L17.6003 5H14.0003V3H21.0003V10H19.0003V6.4L9.70031 15.7Z" fill="#2D2F31"/>
</svg>
