<svg width="24" height="24" viewBox="0 0 24 24" fill="none" xmlns="http://www.w3.org/2000/svg">
<mask id="mask0_1_3243" style="mask-type:alpha" maskUnits="userSpaceOnUse" x="0" y="0" width="24" height="24">
<rect width="24" height="24" fill="#D9D9D9"/>
</mask>
<g mask="url(#mask0_1_3243)">
<path d="M12 22C10.0667 22 8.41667 21.3167 7.05 19.95C5.68333 18.5833 5 16.9333 5 15V9C5 7.06667 5.68333 5.41667 7.05 4.05C8.41667 2.68333 10.0667 2 12 2C13.9333 2 15.5833 2.68333 16.95 4.05C18.3167 5.41667 19 7.06667 19 9V12.1C18.6667 12.0333 18.3333 12 18 12C17.6667 12 17.3333 12.0333 17 12.1V11H7V15C7 16.3833 7.4875 17.5625 8.4625 18.5375C9.4375 19.5125 10.6167 20 12 20C12.1833 20 12.3542 19.9917 12.5125 19.975C12.6708 19.9583 12.8333 19.9333 13 19.9V21.925C12.8333 21.9583 12.6708 21.9792 12.5125 21.9875C12.3542 21.9958 12.1833 22 12 22ZM7 9H11V4.1C9.85 4.33333 8.89583 4.90833 8.1375 5.825C7.37917 6.74167 7 7.8 7 9ZM13 9H17C17 7.8 16.6208 6.74167 15.8625 5.825C15.1042 4.90833 14.15 4.33333 13 4.1V9ZM15.85 22C15.6167 22 15.4167 21.9167 15.25 21.75C15.0833 21.5833 15 21.3833 15 21.15V17.85C15 17.6167 15.0833 17.4167 15.25 17.25C15.4167 17.0833 15.6167 17 15.85 17H16V16C16 15.45 16.1958 14.9792 16.5875 14.5875C16.9792 14.1958 17.45 14 18 14C18.55 14 19.0208 14.1958 19.4125 14.5875C19.8042 14.9792 20 15.45 20 16V17H20.15C20.3833 17 20.5833 17.0833 20.75 17.25C20.9167 17.4167 21 17.6167 21 17.85V21.15C21 21.3833 20.9167 21.5833 20.75 21.75C20.5833 21.9167 20.3833 22 20.15 22H15.85ZM17 17H19V16C19 15.7167 18.9042 15.4792 18.7125 15.2875C18.5208 15.0958 18.2833 15 18 15C17.7167 15 17.4792 15.0958 17.2875 15.2875C17.0958 15.4792 17 15.7167 17 16V17Z" fill="#2181FA"/>
</g>
</svg>
