<svg width="14" height="14" viewBox="0 0 14 14" fill="none" xmlns="http://www.w3.org/2000/svg">
<path d="M7 6.99998C6.08334 6.99998 5.29861 6.67359 4.64584 6.02081C3.99306 5.36803 3.66667 4.58331 3.66667 3.66665C3.66667 2.74998 3.99306 1.96526 4.64584 1.31248C5.29861 0.659702 6.08334 0.333313 7 0.333313C7.91667 0.333313 8.70139 0.659702 9.35417 1.31248C10.0069 1.96526 10.3333 2.74998 10.3333 3.66665C10.3333 4.58331 10.0069 5.36803 9.35417 6.02081C8.70139 6.67359 7.91667 6.99998 7 6.99998ZM0.333336 13.6666V11.3333C0.333336 10.8611 0.454864 10.4271 0.697919 10.0312C0.940975 9.6354 1.26389 9.33331 1.66667 9.12498C2.52778 8.69442 3.40278 8.37151 4.29167 8.15623C5.18056 7.94095 6.08334 7.83331 7 7.83331C7.91667 7.83331 8.81945 7.94095 9.70833 8.15623C10.5972 8.37151 11.4722 8.69442 12.3333 9.12498C12.7361 9.33331 13.059 9.6354 13.3021 10.0312C13.5451 10.4271 13.6667 10.8611 13.6667 11.3333V13.6666H0.333336ZM2 12H12V11.3333C12 11.1805 11.9618 11.0416 11.8854 10.9166C11.809 10.7916 11.7083 10.6944 11.5833 10.625C10.8333 10.25 10.0764 9.96873 9.3125 9.78123C8.54861 9.59373 7.77778 9.49998 7 9.49998C6.22222 9.49998 5.45139 9.59373 4.6875 9.78123C3.92361 9.96873 3.16667 10.25 2.41667 10.625C2.29167 10.6944 2.19097 10.7916 2.11459 10.9166C2.0382 11.0416 2 11.1805 2 11.3333V12ZM7 5.33331C7.45834 5.33331 7.8507 5.17012 8.17709 4.84373C8.50347 4.51734 8.66667 4.12498 8.66667 3.66665C8.66667 3.20831 8.50347 2.81595 8.17709 2.48956C7.8507 2.16317 7.45834 1.99998 7 1.99998C6.54167 1.99998 6.14931 2.16317 5.82292 2.48956C5.49653 2.81595 5.33334 3.20831 5.33334 3.66665C5.33334 4.12498 5.49653 4.51734 5.82292 4.84373C6.14931 5.17012 6.54167 5.33331 7 5.33331Z" fill="white"/>
</svg>
