<svg width="22" height="20" viewBox="0 0 22 20" fill="none" xmlns="http://www.w3.org/2000/svg">
<path d="M8.25117 20.001L7.85117 16.801C7.6345 16.7176 7.43034 16.6176 7.23867 16.501C7.047 16.3843 6.8595 16.2593 6.67617 16.126L3.70117 17.376L0.951172 12.626L3.52617 10.676C3.50951 10.5593 3.50117 10.4468 3.50117 10.3385V9.66348C3.50117 9.55514 3.50951 9.44264 3.52617 9.32598L0.951172 7.37598L3.70117 2.62598L6.67617 3.87598C6.8595 3.74264 7.05117 3.61764 7.25117 3.50098C7.45117 3.38431 7.65117 3.28431 7.85117 3.20098L8.25117 0.000976562H13.7512L14.1512 3.20098C14.3678 3.28431 14.572 3.38431 14.7637 3.50098C14.9553 3.61764 15.1428 3.74264 15.3262 3.87598L18.3012 2.62598L21.0512 7.37598L18.4762 9.32598C18.4928 9.44264 18.5012 9.55514 18.5012 9.66348V10.3385C18.5012 10.4468 18.4845 10.5593 18.4512 10.676L21.0262 12.626L18.2762 17.376L15.3262 16.126C15.1428 16.2593 14.9512 16.3843 14.7512 16.501C14.5512 16.6176 14.3512 16.7176 14.1512 16.801L13.7512 20.001H8.25117ZM10.0012 18.001H11.9762L12.3262 15.351C12.8428 15.2176 13.322 15.0218 13.7637 14.7635C14.2053 14.5051 14.6095 14.1926 14.9762 13.826L17.4512 14.851L18.4262 13.151L16.2762 11.526C16.3595 11.2926 16.4178 11.0468 16.4512 10.7885C16.4845 10.5301 16.5012 10.2676 16.5012 10.001C16.5012 9.73431 16.4845 9.47181 16.4512 9.21348C16.4178 8.95514 16.3595 8.70931 16.2762 8.47598L18.4262 6.85098L17.4512 5.15098L14.9762 6.20098C14.6095 5.81764 14.2053 5.49681 13.7637 5.23848C13.322 4.98014 12.8428 4.78431 12.3262 4.65098L12.0012 2.00098H10.0262L9.67617 4.65098C9.1595 4.78431 8.68034 4.98014 8.23867 5.23848C7.797 5.49681 7.39284 5.80931 7.02617 6.17598L4.55117 5.15098L3.57617 6.85098L5.72617 8.45098C5.64284 8.70098 5.5845 8.95098 5.55117 9.20098C5.51784 9.45098 5.50117 9.71764 5.50117 10.001C5.50117 10.2676 5.51784 10.526 5.55117 10.776C5.5845 11.026 5.64284 11.276 5.72617 11.526L3.57617 13.151L4.55117 14.851L7.02617 13.801C7.39284 14.1843 7.797 14.5051 8.23867 14.7635C8.68034 15.0218 9.1595 15.2176 9.67617 15.351L10.0012 18.001ZM11.0512 13.501C12.0178 13.501 12.8428 13.1593 13.5262 12.476C14.2095 11.7926 14.5512 10.9676 14.5512 10.001C14.5512 9.03431 14.2095 8.20931 13.5262 7.52598C12.8428 6.84264 12.0178 6.50098 11.0512 6.50098C10.0678 6.50098 9.23867 6.84264 8.56367 7.52598C7.88867 8.20931 7.55117 9.03431 7.55117 10.001C7.55117 10.9676 7.88867 11.7926 8.56367 12.476C9.23867 13.1593 10.0678 13.501 11.0512 13.501Z" fill="#2D2F31"/>
</svg>
