<svg width="20" height="16" viewBox="0 0 20 16" fill="none" xmlns="http://www.w3.org/2000/svg">
<path d="M-0.00195312 15.999V10.999C-0.00195312 10.1657 0.289714 9.45736 0.873047 8.87402C1.45638 8.29069 2.16471 7.99902 2.99805 7.99902H3.99805V-0.000976562H15.998V7.99902H16.998C17.8314 7.99902 18.5397 8.29069 19.123 8.87402C19.7064 9.45736 19.998 10.1657 19.998 10.999V15.999H-0.00195312ZM5.99805 7.99902H13.998V1.99902H5.99805V7.99902ZM1.99805 13.999H17.998V10.999C17.998 10.7157 17.9022 10.4782 17.7105 10.2865C17.5189 10.0949 17.2814 9.99902 16.998 9.99902H2.99805C2.71471 9.99902 2.47721 10.0949 2.28555 10.2865C2.09388 10.4782 1.99805 10.7157 1.99805 10.999V13.999ZM15.998 12.999C16.2814 12.999 16.5189 12.9032 16.7105 12.7115C16.9022 12.5199 16.998 12.2824 16.998 11.999C16.998 11.7157 16.9022 11.4782 16.7105 11.2865C16.5189 11.0949 16.2814 10.999 15.998 10.999C15.7147 10.999 15.4772 11.0949 15.2855 11.2865C15.0939 11.4782 14.998 11.7157 14.998 11.999C14.998 12.2824 15.0939 12.5199 15.2855 12.7115C15.4772 12.9032 15.7147 12.999 15.998 12.999Z" fill="#2181FA"/>
</svg>
